<svg xmlns="http://www.w3.org/2000/svg" xmlns:xlink="http://www.w3.org/1999/xlink" id="layer" x="0px" y="0px" viewBox="0 0 652 652" style="enable-background:new 0 0 652 652;" xml:space="preserve"> <style type="text/css"> .st0{fill:#FFFFFF;} .st1{fill:#00499C;} .st2{fill:#9BA4A9;} </style> <polygon class="st0" points="72.8,310.5 58.2,303.7 57.3,305.8 71.8,312.7 "></polygon> <polygon class="st1" points="72.2,276.4 58.1,269.8 57.2,271.9 71.3,278.5 "></polygon> <path class="st1" d="M72.2,254.6c-0.8-0.1-2-0.2-3.6,0.4c-1.9,0.7-3.3,2.1-3.9,3.1c-2.4,3.6-1.6,8.6,2.1,11.2 c3.6,2.4,8.8,1.6,11.2-2.1c1.4-1.9,2.1-5,0.5-8.2l-1.5,2.3c0.4,1.6,0.2,3.3-0.7,4.7c-1.7,2.5-5.5,3.3-8.2,1.4 c-2.8-1.8-3.5-5.5-1.7-8.1c1.4-2.1,3.5-2.3,4.3-2.4L72.2,254.6z"></path> <path class="st1" d="M91.9,250.7l-11-5v2.3l2.8,1.4l-2.8,2.8v5.4l1.2,2.8l1.7-1.7l-2-4.5l4-4l4.5,2.1L91.9,250.7z M80.9,245.8 l-4.2-1.8l-1.5,1.4l5.7,12.4v-5.4l-2.8-5.6l2.8,1.4V245.8z"></path> <path class="st1" d="M100.8,234.2c-1.6-2.1-4-3.3-6.5-3.3v2.1c2,0.1,3.7,1.1,4.7,2.5c1.4,2,2.1,5.8-1.1,8.3 c-1.2,0.9-2.5,1.2-3.7,1.2v2.1c1.7,0,3.4-0.5,4.8-1.6c2.1-1.6,3.1-3.8,3.3-6.1v-0.6C102.3,237.1,101.7,235.5,100.8,234.2 M94.2,230.9c-1.7,0-3.4,0.5-4.9,1.6c-2.1,1.6-3.1,3.8-3.2,6v0.9c0.1,1.6,0.6,3.1,1.6,4.4c1.5,2.1,4,3.2,6.4,3.2V245 c-1.9-0.1-3.7-1.3-4.6-2.5c-1.5-2-2.2-5.8,1.1-8.3c1.1-0.9,2.4-1.2,3.6-1.2V230.9z"></path> <path class="st1" d="M111,231.8c-0.3,0.1-0.5,0.1-0.7,0.1v1.3c0.4,0,0.9-0.1,1.3-0.3c1.5-0.7,2.1-2.5,1.4-4 c-0.5-1.1-1.6-1.7-2.7-1.7v1.3c0.6,0.1,1.2,0.4,1.5,1C112.2,230.3,111.9,231.3,111,231.8 M110.3,231.9c-0.6-0.1-1.3-0.4-1.6-1 c-0.4-0.8-0.1-1.9,0.8-2.3c0.2-0.1,0.5-0.2,0.8-0.2v-1.3c-0.4,0-0.9,0.1-1.3,0.3c-1.5,0.8-2.1,2.5-1.4,4c0.5,1.1,1.6,1.7,2.7,1.7 V231.9z"></path> <path class="st1" d="M135.8,221.2c-0.9-3.6-4.1-6-7.8-6v2.1c2.9-0.1,5.1,2.3,5.6,4.5c0.6,2.4-0.2,6.2-4.1,7.3 c-0.6,0.1-1.1,0.2-1.6,0.2v2.1c0.7,0,1.4-0.1,2.1-0.2c3.6-1,5.9-4.1,6-7.5v-0.6C136,222.4,135.9,221.7,135.8,221.2 M127.9,215.2 c-0.7,0-1.4,0.1-2.1,0.3c-3.7,1-5.8,4.1-6,7.4v0.8c0.1,0.6,0.1,1.1,0.3,1.7c0.9,3.5,4.1,6,7.8,6v-2.1c-3,0-5.1-2.4-5.7-4.5 c-0.6-2.4,0.2-6.2,4.1-7.3c0.6-0.1,1.1-0.2,1.6-0.2V215.2z"></path> <path class="st1" d="M152.8,227.8l-7-15.1l-0.4,0.1v3.9l2,4.8l-2,0.2v2.1l2.9-0.2l2.1,4.5L152.8,227.8z M145.4,212.7l-1.6,0.1 l-4.8,15.9l2.4-0.1l1.4-4.7l2.6-0.2v-2.1l-2,0.1l1.6-6.1h0.1l0.4,0.9V212.7z"></path> <path class="st1" d="M170,217.3c-0.3-0.8-0.9-1.8-2.2-3c-1.6-1.3-3.5-1.7-4.6-1.8c-4.3-0.3-8.2,2.9-8.5,7.4c-0.3,4.4,3,8.4,7.4,8.7 c2.4,0.2,5.4-0.7,7.3-3.6l-2.8-0.2c-1.1,1.2-2.7,1.8-4.4,1.8c-3-0.3-5.5-3.1-5.3-6.5c0.2-3.3,2.9-5.8,6.2-5.5 c2.6,0.2,3.8,1.9,4.3,2.4L170,217.3z"></path> <polygon class="st1" points="174,230.5 177.4,215.3 175.2,214.8 171.7,230 "></polygon> <path class="st1" d="M186.4,224.9c0.3,0,0.4,0,0.6,0.1c0.9,0.4,1.3,1.4,1,2.2c-0.3,0.7-1,1.1-1.6,1.2v1.3c1.3,0,2.4-0.8,2.8-2 c0.6-1.6-0.1-3.3-1.7-3.9c-0.4-0.1-0.7-0.2-1.1-0.2V224.9z M185.9,228.3c-0.9-0.3-1.3-1.4-1-2.3c0.3-0.7,0.9-1.1,1.6-1.1v-1.3 c-1.2,0-2.3,0.7-2.8,1.9c-0.6,1.6,0.1,3.3,1.7,4c0.4,0.1,0.7,0.2,1.1,0.2v-1.3C186.2,228.4,186,228.3,185.9,228.3"></path> <polygon class="st1" points="193.8,237.4 201.7,224 203.7,225.2 197.7,235.4 210.3,229.1 212.4,230.4 204.4,243.7 202.4,242.6 208.6,232.2 208.6,232.2 195.8,238.6 "></polygon> <polygon class="st1" points="216.2,253.3 216.6,243.4 226.2,241.4 224.1,239.5 214.6,241.7 214.5,241.6 219.5,235.7 217.8,234.3 207.8,246.2 209.5,247.6 214.5,241.6 214.6,241.7 214.1,251.5 "></polygon> <path class="st1" d="M227.9,260.5l5.7-11.1l-1.4-1.6l-4.3,1.7v2.3l2.8-1.3h0.1l-2.9,5.1V260.5z M226,264.2l1.9-3.7v-4.8l-0.2,0.4 l-2.7-3l3-1.2v-2.3l-11.2,4.3l1.6,1.8l4.6-1.8l3.8,4.2l-2.3,4.3L226,264.2z"></path> <path class="st1" d="M241.3,274.9c2.4-1.4,3.9-4,4-6.6v-0.6c-0.1-1.3-0.4-2.7-1.2-4c-1.6-2.6-4.3-3.9-7-3.9v2.2 c1.9-0.1,3.9,0.6,5.1,2.8c2,3.3,0.2,6.7-2.1,8.1c-0.8,0.4-1.9,0.8-3,0.8v2.3C238.6,276,240.1,275.6,241.3,274.9 M237.2,259.8 c-1.5,0-2.9,0.4-4.2,1.1c-2.3,1.4-3.8,3.9-3.9,6.6v0.8c0.1,1.3,0.4,2.6,1.1,3.8c1.6,2.6,4.2,3.9,6.9,3.9v-2.3 c-1.8,0.1-3.8-0.6-5.1-2.8c-2.1-3.5-0.1-6.8,2.1-8.1c0.8-0.5,1.9-0.8,3-0.9V259.8z"></path> <path class="st1" d="M61.6,361.5l7-3.6l-4.4-8.5l-2.6,1.3v-1.8l3.5-1.6l5.7,11.7l-9.2,4.5V361.5z M54.6,354.2l4.1,8.7l2.9-1.5v2 l-4.7,2.3l-0.6-1.3l0.9-0.8l-4.1-8.6l-1.1,0.2l-0.8-1.4l10.3-5v1.8L54.6,354.2z"></path> <polygon class="st1" points="55.6,354.3 56.7,353.6 58.4,356.8 60.6,355.8 59.4,353.2 60.8,352.6 62.1,354.8 63.6,354.4 62.1,351.4 63.5,350.8 67,357.8 65.9,358.6 64.3,356.1 62.8,356.6 64,359 63,359.7 61.3,357.6 59.5,358.2 60.6,361 60.4,361.8 59.5,362 "></polygon> <polygon class="st1" points="60.3,358.8 60.3,359.4 61.2,359.8 62,358.7 61.5,358.3 61,358.2 "></polygon> <path class="st1" d="M59.7,371.8l0.1-0.9c0,0,10.3-8.4,10.5-8.5c0.2-0.2,0.8-0.4,1.3,0.1c0.5,0.6,3.1,4,3.1,4s-4.1,1.3-4.8,1.6 c-0.6,0.2-0.8,0.5-1,1.1c-0.3,0.6-0.6,1.5-1.9,2.4c-1.3,0.9-1.7,1.2-2.5,0.8c-0.7-0.5-1.1-1-1.1-1l0.8-1.5c0,0,0.5,1,1.1,1 c0.6,0.1,1.2-0.1,1.4-0.5c0.3-0.3,0.3-1.1,0.6-1.6c0.2-0.6,0.1-1.2,1.1-1.6c1.1-0.4,3.6-1.4,3.6-1.4L71,364l-10.2,8.4L59.7,371.8z"></path> <path class="st1" d="M63.5,373.2c0,0,4.3,0,5.1-1.3c0.6,0.8,0.9,1.4,0.9,1.4l-0.6,0.6l-5.3,0.8L63.5,373.2z"></path> <path class="st1" d="M65,375.6c0,0,0.6,0.5,0.9,0.8c0.3,0.4,1-0.1,1.6-0.5c0.5-0.4,4.4-3.4,4.4-3.4l-2.2-2.8l1.1-1.1 c0,0,5.5,6.3,5.7,6.8c0.3,0.4,0.4,0.9,0.2,1.3c-0.2,0.5-0.3,0.5-0.3,0.5l-0.8-0.4l-2.6-2.9c0,0-4.8,4.1-5.6,4.6 c-0.8,0.5-1.4,0.5-2,0.1C65,378.1,64,377,64,377L65,375.6z"></path> <polygon class="st1" points="71,375.9 69.2,381.1 70.9,381.6 72.5,376.5 "></polygon> <polygon class="st1" points="73.6,368.3 74.4,367.1 74.8,367.1 79.3,372.4 79.3,373.1 78.4,373.6 77.6,373.2 "></polygon> <polygon class="st1" points="100.1,393 100.3,395 101.7,395.3 101.7,392.9 "></polygon> <path class="st1" d="M93.5,396.2L93.5,396.2l0.1-0.1c1.4-2.4,1.7-2.8,1.4-3.6c-0.6-0.5-1.2-0.7-1.2-0.7s-0.1,0.2-0.4,0.7v-2.8 c0.3,0.2,0.7,0.4,1.1,0.7l0.8-1l1.3,0.8l-0.7,1.1c0.3,0.1,0.4,0.3,0.6,0.4c0.4,0.3,0.8,0.8,0.6,1.6c1.1,0.7,5.8,3.8,6.3,4.1 c0.6,0.4,0.8,0.6,0.5,1.1c-0.4,0.6-0.6,0.8-1.1,0.4c-0.4-0.3-5.3-3.4-6.6-4.2l-2.8,4.2V396.2z M93.5,403.5c0.1-0.1,0.2-0.2,0.3-0.3 c1.7-1.2,3-3.7,3.4-4.2c0.4-0.5,0.6-0.1,0.9,0.1c0.3,0.2,0.4,0.4,0.1,0.8c-0.2,0.3-2.1,3.1-3.1,4.4c-1,1.3-0.3,2.5,1.1,3.4 c1.4,0.9,2.6-0.9,2.6-0.9l-1.2-1.2c0,0.1-0.1,0.1-0.3,0.3c-0.5,0.4-0.9-0.1-0.5-0.8c0.4-0.7,2.7-4.2,3.2-5.1 c0.5-0.9,0.3-1.5,0.3-1.5l-3.6-2c0,0-2.5,3.8-3.3,4.8V403.5z M91.8,395c0.6,0.4,1.3,0.9,1.7,1.2v2.7l-2.3,3.2l0.1,0.8 c0,0,1.4-0.8,2-1.3c0.1-0.1,0.1-0.1,0.2-0.2v2.1c-1.4,1-1.6,1.5-1.6,1.5l-0.9-0.4l-0.5-1.3l-0.6,0.1l-1.4-0.6l0.1-1.5l1.4-0.1 c0,0,1.4-1.8,2.8-3.7c-0.4-0.3-1.1-0.9-1.7-1.3l-0.4,0.4c-1.3,1.8-2.9,3.5-4.4,4.7c-0.8-1-1.1-1.5-1.1-1.5s2.4-1.6,4.6-4.4l-0.2-0.1 c-0.8-0.4-1.2-0.4-0.8-1.2c0.5-0.8,0.4-0.8,0.9-0.6c0.1,0.1,0.5,0.3,0.9,0.6c0.3-0.4,0.5-0.8,0.7-1.2c1.6-2.8,1.8-3.4,1.8-3.4 s0.1,0.1,0.3,0.2v2.8C93.1,393,92.4,394,91.8,395"></path> <path class="st1" d="M93.8,392.8l0.6,0.5c0,0-0.1,0.4-0.1,0.7c-0.1,0.3-0.7,0.9-0.7,0.9l-0.9-0.6L93.8,392.8z"></path> <polygon class="st1" points="90.6,397.2 91.6,397.3 91.2,399.5 89.6,399.5 "></polygon> <path class="st1" d="M112.5,400.9l-1.3-1.7c0,0-1.9,2.3-2.8,2.6c-0.9,0.3-1.3,0.4-1.3,0.4l-0.9,0.6l0.1,1.6l2.1,0.8c0,0-0.8,1-2,1.3 c-1.1,0.2-1.4,0.2-1.9,1c-0.4,0.8-0.2,0.9,0.4,1.3c0.6,0.4,2.8,1.2,3.6,1.3c0.8,0.1,2.1-0.5,1.3-1c-0.8-0.4-1.2-0.7-1.7-0.8 c-0.4-0.2-0.7-0.8,0-1.1c0.8-0.2,5-2.9,5-2.9l-1-1.3l-2.3,1.4l-1.4-1L112.5,400.9z"></path> <path class="st1" d="M102.9,409.7c0,0,2.3,1.1,3.5,1.2c1.1,0.2,2.1,0,2.1,0l-0.2,1.6h-0.6c-0.6-0.1-1.4-0.1-1.9-0.3 c-0.6-0.3-1.8-0.4-2.3-0.4c-0.4,0-0.6-0.1-0.6-0.1L102.9,409.7z"></path> <path class="st1" d="M116.5,406.9l1.2,0.5l1-2.5l-2.2-0.9v-1.6l4.5,2l-4.5,9.5v-4.3l0.5-0.9l-0.5-0.2V406.9z M116.5,417.7V417 C116.7,417.2,116.7,417.5,116.5,417.7 M114.3,406.1l2.2,0.9v1.6l-2.8-1L113,409v-4l1.5-3.4l2,0.9v1.6l-1.1-0.5L114.3,406.1z M116.5,409.7v4.3l-1.2,2.4c0.6,0.2,0.9,0.4,0.9,0.5c0.1,0,0.2,0.1,0.3,0.1v0.8h-0.1c-0.3,0.3-0.7,0.5-1.3,0.2c-0.2,0-1.1-0.5-2.1-1 v-1.8c0.5,0.1,0.9,0.1,0.9,0.1l1.3-2.5l-2.2-0.9v-1.8l2.6,1.2L116.5,409.7z M113,405v4l-0.5,0.9l0.5,0.2v1.8l-1.3-0.6l-0.9,2.3 c0,0,0.9,1,1.6,1.4c0.2,0.1,0.4,0.1,0.6,0.2v1.8c-2.5-1.3-6.3-3.2-6.3-3.2l0.8-1.4l1.8,0.9L113,405z"></path> <path class="st1" d="M127.4,405.8c0,0-1.2,2.7-1.3,3c-0.2,0.3-1.4,0.9-1.9,1.2c-0.5,0.3-1,0.6-0.9,1.1c0.1,0.5,0.4,1.1,0.4,1.1h2.1 c0.6,0,0.7,0.2,0.4,0.6c-0.4,0.5-2.3,1.3-2.7,1.4c-0.4,0.2-0.9,0.3-0.7,1.3c0.3,0.9,0.4,0.7,1.7,0.8c1.3,0.1,4.3,0.3,4.3,0.3 l0.1-1.3c0,0-1.2-0.1-1.9-0.3c-0.6-0.2-1-0.4-0.2-0.9c0.8-0.6,3-2.5,3.5-2.9c0.4-0.4,0.5-0.6,0.5-0.6s-0.4-1-1.5-1.3 c-0.6,1-0.8,1.6-0.8,1.6s-0.9,0.3-1.7-0.1c-0.8-0.4-0.5-0.8,0-1.2c0.5-0.3,2.8-2.4,2.8-2.4L127.4,405.8z"></path> <path class="st1" d="M134.2,415.4l1.2,0.4l1-5l-2.2-0.6v-1.6l4.5,1.1l-2.1,7.7l-2.3-0.5V415.4z M133,410l-1.1,4.9l2.3,0.6v1.4 l-4.4-0.9l2.1-8l2.3,0.6v1.6L133,410z"></path> <polygon class="st1" points="132.7,418.7 134.5,418.2 136.2,422.4 134.3,423.3 "></polygon> <path class="st1" d="M132.1,418.8L128,422l-1.1-1.3c0,0,0.2-0.2,0.4-0.5c0.3-0.2,0.3-0.7-0.4-0.7c-0.6,0-5.2,0.2-5.2,0.2v-2 c0,0,3.8,0.7,4.6,0.7c0.8,0,1.8-0.3,1.8-0.3s0,0.5,0.1,0.8c0.1,0.3,0.3,0.6,1.2-0.2c0.8-0.8,1.2-1.2,1.2-1.2L132.1,418.8z"></path> <path class="st1" d="M152.5,419.6c0.8,0,1.5-0.7,1.5-1.5c0-0.8-0.7-1.5-1.5-1.5v-0.9c1.3,0,2.4,1.1,2.4,2.4c0,1.3-1.1,2.4-2.4,2.4 V419.6z M151,418.1c0,0.8,0.7,1.5,1.5,1.5v0.9c-1.3,0-2.4-1.1-2.4-2.4c0-1.3,1.1-2.4,2.4-2.4v0.9C151.7,416.6,151,417.2,151,418.1"></path> <path class="st1" d="M170.8,421.9c0.6,0,1.3-0.3,2-0.7c-0.6-1.6-1.3-2.1-2-2.3v-2.9c2.6,0.1,5.1,4.5,5.1,8s-4,5.1-5,5.1h-0.1v-1.3 c0.5-0.2,1-0.4,1.4-0.5c1.1-0.6,1.5-1.6,1.5-2.5c0-0.9-0.4-1.9-0.4-1.9s-1.1,0.5-2.5,0.8V421.9z M168.9,421.9c0,0,0.9,0.2,1.9,0v1.7 c-1,0.2-2.2,0.4-3.3,0.2c-0.1-0.5-0.2-1-0.3-1.5v-0.8c0.1-2.7,1.4-5.5,3.5-5.5c0.1,0,0.1,0,0.1,0.1v2.9c-0.1-0.1-0.2-0.1-0.3-0.1 C168.8,418.7,168.9,421.9,168.9,421.9 M170.8,427.8v1.3c-1,0-2.2-0.6-2.7-0.7c-0.5-0.2-0.3-0.6,0.5-0.4 C169.2,428.1,170,428,170.8,427.8"></path> <path class="st1" d="M174.8,409.7l0.9-0.7l8.4,11.3c0,0,9.2-2.8,16.3-6.6c7.2-3.7,14.9-8,22.7-15.3c7.7-7.4,13.1-14.1,19.1-23.6 c-2.2-2.9-5.6-7.1-5.6-7.1l-2.9,3.6l0.6,1.1l2.1-1.6l3,3c0,0-3.8,6.7-7.8,11.4c-3.9,4.6-13,14.6-23,20.5c-10,6-16,8.9-23.6,11.1 c-4.6-5.8-8.7-11.5-8.7-11.5l-2.4,3.5L174.8,409.7z"></path> <path class="st1" d="M230.2,378l-8,8.3c0,0-1.6-1.5-1.9-9.3c-0.1-0.7-0.6-1.4-0.6-0.3c0,1.3-0.9,12.7-0.9,12.7l2.5,0.9l8.7-9 l2.5,1.8l2-1.7L230.2,378z"></path> <path class="st1" d="M239.3,383.1c0-0.9,0.8-1.8,1.8-1.8c0.9,0,1.7,0.8,1.7,1.8c0,1-0.8,1.8-1.7,1.8 C240.1,384.9,239.3,384.1,239.3,383.1"></path> <path class="st1" d="M242.5,379c0-0.9,0.8-1.7,1.8-1.7s1.8,0.7,1.8,1.7c0,1-0.8,1.8-1.8,1.8S242.5,380,242.5,379"></path> <path class="st1" d="M245.6,368.4L245.6,368.4L245.6,368.4z"></path> <path class="st1" d="M233.8,357.8c0,0,1.3-2.7,1.6-3.5c2,1.9,11.5,11.7,11.5,11.7l-1.4,2.4l-9.7-10.2l-1.1,0.9L233.8,357.8z"></path> <path class="st1" d="M152.6,355.3c23.6,0,42.7-18.9,43.1-42.3c-0.4-0.3-0.7-0.7-1.1-1H163c0-0.5,0-1-0.1-1.5h29.5 c-1.6-1.1-3.4-2-5.5-2.6l0.4-0.8c2.6-4.2,4.9-7.8,5.9-9.3c-6-16.7-21.8-28.6-40.7-28.6v-1.6c19.4,0,35.9,12.3,42,29.6h11.6 c-6.5-23.4-28-40.7-53.6-40.7v-1.6c26.5,0,48.7,18.1,55.3,42.3h74c1.3,0,0.6-1.3,2.1,0c0.6,0.4,0.8,0.9,0.8,1.2v0.1 c0,0.8-0.8,1.4-1.5,2.1c-2.1,2.3-7.9,8.3-7.9,8.3h-78.8c-1.5-1.1-3.3-2.2-5.3-3.1l3.8-6.1h86c0.9,0,1.6-0.4,1.8-0.9 c0.1-0.6-0.6-0.4-1-0.4h-87.5c-0.6,0.9-2.8,4.3-5.4,8.5c18.8,7.2,14.3,26,8.4,34.9c-9.6,14.6-26.1,24.2-44.8,24.2v-1.4 c18.3-0.1,34.2-9.3,43.7-23.5c5.8-8.8,7-19.3,0.9-26.7c-1.3,23.6-20.7,42.3-44.6,42.4V355.3z M110.6,312c-0.4,0.3-0.8,0.7-1.1,1 c0.4,23.5,19.5,42.3,43,42.3v1.6c-23.8,0-43.4-18.8-44.5-42.4c-6.1,7.4-4.9,18,0.9,26.7c9.3,14.2,25.3,23.5,43.6,23.5v1.4 c-18.8,0-35.2-9.6-44.8-24.2c-5.9-8.9-10.4-27.8,8.5-34.9c-2.6-4.3-4.8-7.6-5.5-8.5H23.4c-0.4,0-1.1-0.2-0.9,0.4 c0.1,0.6,0.8,0.9,1.8,0.9h86l3.8,6.1c-2,0.9-3.8,1.9-5.3,3.1H29.8c0,0-5.7-6-7.9-8.3c-0.6-0.7-1.4-1.4-1.4-2.1v-0.1 c0-0.4,0.2-0.8,0.8-1.3c1.5-1.3,0.8,0,2.1,0h74c6.6-24.3,28.7-42.3,55.2-42.3v1.6c-25.6,0-47.1,17.3-53.6,40.7h11.5 c6.2-17.3,22.6-29.6,42-29.6v1.6c-18.8,0-34.7,12-40.6,28.6c1,1.4,3.3,5.1,5.8,9.3l0.4,0.8c-2,0.7-3.8,1.6-5.5,2.6h29.5 c-0.1,0.5-0.1,1-0.1,1.5H110.6z"></path> <path class="st1" d="M153.4,322.7v46.6h-1.6v-46.6h0.8H153.4z M160.7,318.9l32.3,32.3l-1.1,1.1L159.6,320 C159.9,319.7,160.3,319.3,160.7,318.9 M159.3,304.2l32.2-32.1l1.1,1.1l-32.1,32.1C160.1,304.9,159.7,304.6,159.3,304.2 M151.8,301.8 v-46.6h1.6v46.6h-0.8H151.8z M144.8,305.2l-32.1-32.1l1.1-1.1l32.2,32.1C145.5,304.5,145.1,304.9,144.8,305.2 M112,351.5l32.6-32.6 c0.3,0.4,0.7,0.8,1.1,1.1l-32.5,32.6L112,351.5z"></path> <path class="st1" d="M172.6,389.1c0,0-9.7-11-20.6-13.8c-9.8-2.6-14.1-3.5-23-1.6c-8.9,1.8-17.1,4.9-24.9,2.1 c-0.7-0.2-1.2-0.1-0.6,0.6c0.6,0.7,1.6,1.7,3.1,2.8c1.5,1.1,6.2,2.5,10.9,3.2c4.8,0.7,7.1,0.8,14.1-1.4c7-2.3,9.9-4.3,16.8-4.3 c7.3,0,8.5,1.8,21,13.4C171.2,389.5,172.6,389.1,172.6,389.1"></path> <path class="st1" d="M122.4,372.8c-1.1,0-4,0.5-6.5,1.3c-2.7,0.8-5.1,0.8-8.5,0.3c-3.5-0.4-7.8-0.8-11.3-4.4c-3.6-3.6-7.5-8.6-8-9.5 c-0.5-0.7-0.2-1.1,0.6-0.3c0.8,0.8,3.4,3.3,9.5,4.4c6,1.1,9,2.1,14.1,4.9c2.4,1.3,5.5,2.3,8.7,2c-3.1-1.8-3.8-1.6-6-2.9 c-2.1-1.4-4.1-3.2-5.8-5.9c-1.7-2.8-2.4-6-2.6-7.4c-0.1-1.4,0.1-2.3-0.2-3c-0.3-0.7-0.1-1.2,0.5-0.4c0.6,0.8,2.4,2.8,4.5,4.5 c2.1,1.8,4.1,3.4,5.8,6.8c1.6,3.3,1.8,4.9,4.7,7.2c2.9,2.3,3.5,2.6,2,2.6H122.4z"></path> <path class="st1" d="M100.8,322.4H44c0,0-5.7-6-7.9-8.4c-0.9-1-2.3-2.1-0.7-3.5c1.6-1.3,0.9-0.1,2.1-0.1h69.4 c-0.5,0.5-0.9,0.9-1.4,1.4h-68c-0.4,0-1.1-0.1-0.9,0.3c0.1,0.6,0.8,1.1,1.8,1.1h66.1C102.5,316,101.3,319.1,100.8,322.4"></path> <path class="st1" d="M105.7,364.6c-0.8-0.2-8.2-2.6-11.4-3.8c-3.1-1.2-8.4-3.7-10.9-9.3c-2.5-5.6-4.5-9.6-4.6-11.1 c-0.3-1.5-0.1-1.6,0-1.8c0.1-0.2,0.2-0.3,0.4,0c0.2,0.2,4.1,6.2,7,8.7c2.8,2.4,6.5,4.5,8.5,6.3c2,1.8,4,3.9,5.8,5.8 c1.7,1.8,3,2.4,3,2.4s-2.7-4.3-4.1-6.3c-1.4-2-2.8-3.8-2.8-6.8s0.1-7.8,0.2-8.5c0.1-0.7,0.2-0.8,0.7-0.2c0.4,0.6,2.8,3.5,4.3,6.3 c1.5,2.8,2.3,6,2.3,7.2c0,1.2,0,3.2,0.3,4.5c0.3,1.3,1.6,5.2,2.1,6.3C107.1,365.2,106.9,365.1,105.7,364.6"></path> <path class="st1" d="M80.9,337.1c0,0,2.9,3.3,5.1,5.4c2.1,2,6.1,5.3,6.5,5.8c0.4,0.5,0.6,0.3,0.6-0.3c0-0.6,0.1-4.6,0.4-6.6 c0.3-1.9,0.3-4.3,0.3-4.3h-4.6c0,0,1.1,3,1.4,4.3c0.4,1.3,0.3,2,0.3,2s-0.8-0.8-1.9-3.4c-1-2.5-1.1-2.8-1.1-2.8H80.9z"></path> <path class="st1" d="M78,295.7c0,0-0.1-4.3,1.5-9.4c1.6-5.2,3.5-8.5,6.2-11.7c0.3-0.4,0.8-0.6,0.6,0.2c-0.3,0.8-1.8,3.9-1.8,10.8 c0,6.9,0.3,2.9,0.3,10H78z"></path> <path class="st1" d="M86.9,295.7c0,0,3.7-3.3,7.3-7.1c3.6-3.7,4-4.3,4.3-5c0.3-0.6,0.9-0.7,0.7,0.2c-0.2,0.9-2.1,7.1-4.8,11.9H86.9z "></path> <path class="st1" d="M86.9,280.5c0-4.5,1.1-10.3,5.5-14.2c1.6-1.4,2.7-2.4,3.4-3.1c0.7-0.8,1.2-0.8,0.6,0.3 c-0.6,1.1-2.1,3.6-3.1,8.6c-1.1,5-2.1,9.1-3.3,12.6c2.8-5,2.9-6.1,8-9.2c5-3.1,7.5-5.9,8.1-6.9c0.6-0.9,0.9-0.7,0.6,0.2 c-0.3,1-2.3,6.8-6.9,11.1c-4.6,4.3-9.8,7.8-11.6,11.6c-0.4,0.7-0.8,1.2-0.8-0.2C87.2,289.9,86.9,285.7,86.9,280.5"></path> <path class="st1" d="M94.4,273.8c0.3-1,1.6-6.9,5.8-10.5c4.1-3.6,9.4-5.8,10.6-6.3c1.2-0.6,1.3-0.2,0.6,0.4 c-0.8,0.7-3.6,4.1-5.8,7.6c-2.2,3.5-3.7,5-6.1,6.1c-2.3,1.1-4,2.3-4.5,3C94.4,274.9,94.1,274.8,94.4,273.8"></path> <path class="st1" d="M132.7,389.1c0,0,9.8-11,20.6-13.8c9.9-2.6,14.1-3.5,23-1.6c8.9,1.8,17.1,4.9,24.9,2.1c0.7-0.2,1.2-0.1,0.6,0.6 c-0.6,0.7-1.6,1.7-3,2.8c-1.4,1.1-6.2,2.5-10.9,3.2c-4.8,0.7-7.2,0.8-14.2-1.4c-7-2.3-9.9-4.3-16.8-4.3c-7.3,0-8.5,1.8-20.9,13.4 C134,389.5,132.7,389.1,132.7,389.1"></path> <path class="st1" d="M182.8,372.8c1.1,0,4,0.5,6.6,1.3c2.6,0.8,5.1,0.8,8.5,0.3c3.4-0.4,7.7-0.8,11.3-4.4c3.5-3.6,7.5-8.6,7.9-9.5 c0.5-0.7,0.2-1.1-0.6-0.3c-0.8,0.8-3.5,3.3-9.5,4.4c-6,1.1-9,2.1-14.2,4.9c-2.4,1.3-5.4,2.3-8.6,2c3.1-1.8,3.8-1.6,5.9-2.9 c2.2-1.4,4.1-3.2,5.8-5.9c1.7-2.8,2.5-6,2.6-7.4c0.2-1.4,0-2.3,0.2-3c0.3-0.7,0.1-1.2-0.6-0.4c-0.6,0.8-2.4,2.8-4.4,4.5 c-2.1,1.8-4.2,3.4-5.8,6.8c-1.6,3.3-1.9,4.9-4.8,7.2c-2.9,2.3-3.4,2.6-2,2.6H182.8z"></path> <path class="st1" d="M204.4,322.4h56.8c0,0,5.8-6,7.9-8.4c0.9-1,2.4-2.1,0.7-3.5c-1.5-1.3-0.8-0.1-2.1-0.1h-69.4 c0.5,0.5,0.9,0.9,1.4,1.4h68c0.4,0,1.1-0.1,0.9,0.3c-0.2,0.6-0.8,1.1-1.8,1.1h-66.1C202.8,316,204,319.1,204.4,322.4"></path> <path class="st1" d="M199.5,364.6c0.8-0.2,8.2-2.6,11.3-3.8c3.1-1.2,8.5-3.7,10.9-9.3c2.5-5.6,4.5-9.6,4.6-11.1 c0.3-1.5,0.1-1.6,0-1.8c-0.1-0.2-0.2-0.3-0.4,0c-0.3,0.2-4.1,6.2-7,8.7c-2.9,2.4-6.5,4.5-8.5,6.3c-2,1.8-4,3.9-5.8,5.8 c-1.7,1.8-3,2.4-3,2.4s2.7-4.3,4-6.3c1.5-2,2.8-3.8,2.8-6.8s-0.1-7.8-0.1-8.5c-0.1-0.7-0.2-0.8-0.7-0.2c-0.5,0.6-2.8,3.5-4.3,6.3 c-1.4,2.8-2.3,6-2.3,7.2c0,1.2,0,3.2-0.3,4.5c-0.3,1.3-1.6,5.2-2.1,6.3C198.2,365.2,198.3,365.1,199.5,364.6"></path> <path class="st1" d="M224.3,337.1c0,0-2.9,3.3-5,5.4c-2.2,2-6.1,5.3-6.5,5.8c-0.4,0.5-0.6,0.3-0.6-0.3c-0.1-0.6-0.1-4.6-0.4-6.6 c-0.3-1.9-0.3-4.3-0.3-4.3h4.7c0,0-1.1,3-1.5,4.3c-0.3,1.3-0.3,2-0.3,2s0.8-0.8,1.8-3.4c1.1-2.5,1.1-2.8,1.1-2.8H224.3z"></path> <path class="st1" d="M227.2,295.7c0,0,0.1-4.3-1.5-9.4c-1.6-5.2-3.4-8.5-6.1-11.7c-0.4-0.4-0.8-0.6-0.6,0.2 c0.3,0.8,1.8,3.9,1.8,10.8c0,6.9-0.3,2.9-0.3,10H227.2z"></path> <path class="st1" d="M218.4,295.7c0,0-3.8-3.3-7.3-7.1c-3.6-3.7-4-4.3-4.4-5c-0.3-0.6-0.9-0.7-0.6,0.2c0.2,0.9,2.1,7.1,4.8,11.9 H218.4z"></path> <path class="st1" d="M218.3,280.5c0-4.5-1.1-10.3-5.5-14.2c-1.7-1.4-2.8-2.4-3.4-3.1c-0.8-0.8-1.3-0.8-0.7,0.3 c0.6,1.1,2.1,3.6,3.1,8.6c1.1,5,2.1,9.1,3.4,12.6c-2.8-5-2.9-6.1-8-9.2c-5.1-3.1-7.5-5.9-8.1-6.9c-0.6-0.9-0.9-0.7-0.6,0.2 c0.3,1,2.2,6.8,7,11.1c4.6,4.3,9.7,7.8,11.6,11.6c0.3,0.7,0.8,1.2,0.8-0.2C218.1,289.9,218.3,285.7,218.3,280.5"></path> <path class="st1" d="M210.9,273.8c-0.3-1-1.6-6.9-5.8-10.5c-4.2-3.6-9.5-5.8-10.6-6.3c-1.2-0.6-1.3-0.2-0.6,0.4 c0.7,0.7,3.6,4.1,5.8,7.6c2.3,3.5,3.8,5,6.1,6.1c2.4,1.1,4,2.3,4.6,3C210.8,274.9,211.2,274.8,210.9,273.8"></path> <path class="st1" d="M101,335.7H58c0,0-5.7-6-7.9-8.3c-0.6-0.7-1.4-1.3-1.4-2.1v-0.1c0-0.4,0.2-0.8,0.7-1.3c1.5-1.3,0.9,0,2.1,0 h49.3c-0.1,0.4-0.1,0.9-0.1,1.3H51.5c-0.3,0-1-0.1-0.9,0.4c0.2,0.6,0.8,1.1,1.8,1.1h48.4c0.2,2.9,0.8,6,2,9l0.1,0.1 c1,2.8,2.3,5.3,3.6,7.4c10,15,26.9,24.9,46.3,24.9v1.6c-20,0-37.4-10.2-47.6-25.6C103.5,341.7,102,338.9,101,335.7 M256.6,325.2 c0-0.4-0.3-0.8-0.8-1.3c-1.5-1.3-0.8,0-2.1,0h-49.2c0.1,0.4,0.1,0.9,0.1,1.3h49.1c0.4,0,1.1-0.1,0.9,0.4c-0.1,0.6-0.8,1.1-1.8,1.1 h-48.4c-0.1,2.9-0.8,6-2,9v0.1c-1,2.8-2.3,5.3-3.6,7.4c-10,15-26.9,24.9-46.4,24.9v1.6c19.9,0,37.4-10.2,47.7-25.6 c1.5-2.3,2.9-5.1,3.9-8.3h43c0,0,5.7-6,7.9-8.3C255.7,326.7,256.6,326.1,256.6,325.2L256.6,325.2z"></path> <path class="st1" d="M193.7,294c-0.7-0.8,0-1.6,0.8-2.2c1.1-0.7-1-1.2-1-2.2c-0.6,0.1-1.1-0.2-1.3-0.8c-0.3-0.6,0.6-1.3-0.1-1.6 c-0.4-0.1-0.8-0.2-1-0.6c-0.3-0.5-0.1-1.3-0.4-1.6c-0.9-0.9-3.2-1.4-3.2-2.9c0.3,0.1,0.5,0.4,0.8,0c-0.8-0.1-0.5-1.4-1.3-1.2 c-0.1,0-0.4,0.1-0.6,0.1c0.1-0.5-0.6-0.7-0.4-1.3c-0.2-0.1-0.5-0.1-0.8,0.1c-0.2-0.9-0.3-1.3-1-1.9c-0.4-0.3-0.1-1.3-0.1-2 c-0.3,0.4-0.8,0.3-0.9,0.1c-0.8-0.9-1.8-1.9-2.1-2.8c-0.2-0.7-0.6-1.3-0.9-2.1c0-0.2-0.1-0.6,0-0.7c0.3-0.2,0.5,0.7,0.6,0.3 c0.1-1.3-1.4-3.3-2.7-2.5c-0.7,0.4-1.6,0.7-2.5,1c-1.1,0.4-2.2,0.7-3.4,0.7c-0.4-0.1-1.2,0.1-1.3,0.3c-0.6,1.3,0.6,2.6,1.1,3.8 c0.4,0.8,0.5,1.9,1.2,2.9c-0.2,0.1-0.3,0.1-0.4,0.2c-0.1,0.2,0,0.4,0,0.6c0.5,0,0.7,0.5,1,0.8c0.2,0.3-0.1,1.1,0.2,1.6 c0.3,0.6,0.9,1.1,1.6,1.5c0.7,0.3,1.5-0.2,2.2-0.1c0.1,0,0.3,0.2,0.3,0.4c0.4,1.4-0.6,2.9,0.4,4.2c0.4,0.6,1.5,0.3,2.1,0.6 c0,0.1-0.1,0.7,0,0.7c0.4,0.3,0.9,0,1.3,0.1c0.1,0,0.1,0.3,0.1,0.3c0.1-0.1,0-0.3-0.1-0.1c-0.6,1.3,0.9,1.8,2,2.1 c0.3,0.1,0.2,0.8,0.4,1c0.8,0.6,2.1,0.1,2.9,0.6c0.2,0.1,0.3,1,0.5,1.5c0.1,0.4,0.6,0.8,1,0.6c0,1.9,2.4,1.3,3.8,1.6 c0-0.9,1.1-1.3,0.8-2.3L193.7,294z"></path> <path class="st1" d="M157.7,263.9c0.9,0.1,0.6-1,1.3-1.1c0.4,0,0.9,0.3,1.1-0.1c0.1-0.2,0.1-0.4,0.1-0.6c-0.8,0.1-1.3-1-2-0.7 c-1.7,0.9-3.5,1.6-5.4,2c-0.1,0,0,0.3,0,0.3c1.1,0.1,2.2,0.5,3.3,0.7c0.5,0.1,1,0.9,1.5,0.8C157.9,265.3,158.6,264.4,157.7,263.9"></path> <path class="st1" d="M153.3,270.2c0.5-0.1,1-0.3,1.5-0.2c-0.2,0.6-0.1,1.2-0.3,1.6c-0.3,0.6-1.3,0.6-1.7,0c-0.7-0.7,0-1,0.6-1.4 H153.3z"></path> <path class="st1" d="M162.6,270.1c-0.3,0.4-0.7,0.3-0.9,0.6c-0.4,0.5,0.1,0.7,0.4,1.1c0.1,0.1,0,0.3,0.1,0.5 c0.1,0.3,0.6,0.1,0.5,0.6c0.7-0.2,0.8-1.1,1.3-1.4c0.1-0.1,0.1-0.3,0-0.4c-0.1-0.1-0.4,0.1-0.5-0.1c-0.5-0.4-0.8-1.4-1.6-0.7 L162.6,270.1z"></path> <path class="st1" d="M184.6,295.7c-0.4-0.6-0.4-1.4,0-2c0.1-0.1,0.3,0,0.5,0c0,0.6,0.4,1.2-0.1,1.8 C185,295.6,184.7,295.8,184.6,295.7"></path> <path class="st1" d="M178,293.1c-0.8,0.3-1.7,0.8-1.8,1.8c-0.3,0-0.4,0.4-0.8,0.4c0,0.2-0.1,0.4,0.1,0.5c0,0.1,0.3,0.1,0.3,0.2 c0.1,0.2,0.1,0.5,0,0.5c-0.7,0.6-1.1,1.4-0.5,2c0.4,0.4,1-0.3,1.6-0.2c-0.3-1.1,0.1-2,1.1-2.7c0.3-0.2,0.2-0.7,0-1.1 c0.5-0.2,0.4-0.6,0.4-0.9c-0.4,0-0.3-0.6-0.6-0.4c-0.1,0-0.1,0.1-0.1,0.2C178,293.3,178,293.3,178,293.1"></path> <path class="st1" d="M167.5,279.8c1.5-0.3,2.7-0.1,4.3-0.3c0.8-0.1,1.1,1,1.4,1.7c0.2,0.4,0.9,0.1,1.1,0.4c1.3,1.6,2.1,3.8,2.8,5.6 c0.4,0.9,1.6,1.7,2,2.8c0.1,0.4,0.9,0.6,1.2,1.1c0,0.1,0.1,0.5-0.2,0.7c0.3,0.3,0.6,0.1,0.7,0.2c0.2,0.9,0.9,1.6,1.4,2.3 c0.3,0.2,0.1,0.9,0.1,1.4c0.1,0.1,0.2,0.2,0.3,0.4c0.1,0.5-0.2,0.9-0.2,1.3c0.1,0.7,0.3,1.4,0.3,2.2c-0.6-0.1-1.1-0.3-1.7-0.6 c-0.2-0.1-0.1-0.4-0.2-0.5c-0.6-0.8-3.1-1.3-1.8-2c0.7-0.4,1.6-1.2,1.3-2.1c-0.1-0.3-0.5-0.3-0.7-0.5c-0.5-0.4-0.1-1.2-0.5-1.7 c-0.4-0.6-1.1-0.7-1.7-1.2c-0.3-0.3-0.1-0.9-0.5-1.1c-1.2-0.9-2.6-1.4-3.4-2.5c-0.4-0.4,0.6-1.4,0.1-2.1c-0.4-0.7-1.3-1.1-1.8-1.9 c-0.2-0.4,0.1-0.6,0.3-0.9c0.1-0.2,0.1-0.5,0-0.7c0-0.4-0.6-0.3-0.7-0.6c-0.6,0.6-1.4,0-2,0.2c-0.3,0.2-0.6,0.4-1,0.2 c-0.6-0.4-1-1-0.8-1.7c0-0.4,0.6-0.5,1.2-0.4L167.5,279.8z"></path> <path class="st1" d="M181.4,289.6h0.2c-0.2-0.1-0.6-0.1-0.6,0.1c0,0.7,0.7,1,1.3,1.1C182.3,290.3,182,289.6,181.4,289.6"></path> <path class="st1" d="M182.7,292.2h-0.4c0.1,0.2-0.1,0.2-0.3,0.4c0.3,0.4,0.6,1.1,0.9,1c0.8-0.2,0.3-1.4,0.4-2.2 c-0.3,0.5-0.9,0.6-0.9,1.2C182.5,292.4,182.7,292.3,182.7,292.2"></path> <path class="st1" d="M181.4,305.8c0.5-0.5,0.4-1.3,1.1-1.5c0.5-0.3,1.1-0.5,1.4-0.8c0.2-0.3,0.1-1.1,0.3-1.1 c1.2-0.2,0.7,1.3,0.4,1.8c-1.1,1.7-1.8,4.5-3.9,3.9c-1.2-0.3-0.6-2.2-0.8-3.6c-0.1-0.7-1.4-0.2-2.1-0.5c-0.6-0.2,0.5-1-1-1.2 c1.3-0.2,2.7-0.8,3.6-0.2c0.8,0.6-0.3,3.1,1.3,3.2H181.4z"></path> <path class="st1" d="M185.3,304.8c-0.4,0.9,0.1,1.4-0.9,2c-0.1,0.1,0.3,0.6,0.1,0.6c-0.4,0.2-0.8,0.3-1.1,0.6 c0.6,0.4,1.6,1.1,1.8,0.9c0.8-1.7,2.1-4.1,0.3-5.7c-0.1,0.4,0.1,0.9,0.1,1.3c-0.1,0.2-0.4,0.6-0.3,0.9V304.8z"></path> <path class="st1" d="M185.9,297.2c-0.4-0.4-1.2-0.3-1.4,0.1c-0.3,0.6,0.2,1.4,0.4,2.1c0.3,0.7-1.2,2-0.2,2.8 c0.3,0.2,1.4-0.4,1.4-0.8c0.1-1.4,0.6-3.1,0-4.4c0-0.2-0.5-0.3-1-0.1L185.9,297.2z"></path> <path class="st1" d="M167.3,277.9c-0.3-0.1-0.4,0.1-0.4,0.2c-0.1,0.6,0.6,0.5,0.9,0.8c0-0.4,0.1-0.8,0-1.1c-0.1-0.1-0.4-0.1-0.8-0.1 C167.1,277.8,167.2,277.8,167.3,277.9"></path> <path class="st1" d="M175.7,312.2c0,12.7-10.3,23-23.1,23.1v-1.6c11.9,0,21.5-9.7,21.5-21.5c0-11.8-9.6-21.5-21.5-21.5v-1.6 C165.4,289.2,175.7,299.5,175.7,312.2 M152.6,335.3L152.6,335.3c-12.7,0-23.1-10.4-23.1-23.1s10.4-23,23.1-23v1.6 c-11.9,0-21.5,9.6-21.5,21.5c0,11.9,9.6,21.5,21.5,21.5V335.3z"></path> <path class="st1" d="M119.4,282.3c-0.4-0.7,0.3-1.6-0.1-1.9c-0.7-0.7-1.7,0.3-2.1,0.9c-0.5,0.9,1,0.9,1.8,0.9c0.2,0,0.3,0.2,0.2,0.4 C119.3,282.4,119.4,282.4,119.4,282.3"></path> <path class="st1" d="M152.9,301.9c-0.6-0.1-0.8-0.8-1.3-1.2c-0.7-0.3-1.3,0.1-1.9-0.1c-0.3-0.1-0.5-0.3-0.8-0.5 c-0.2-0.1-0.5-0.1-0.7-0.1c-0.8,0.2-0.6,1.1-0.8,1.6c-0.3,0.7-0.9,1.1-1.8,1.1c-0.1-0.1-0.3,0.2-0.4,0.2c-1.2,0.4-2.5,0.4-3.5-0.1 c-1.4-0.6-2.4-1.8-3.8-2c-1.5-0.3-3-0.3-4.5,0.1c-0.2,0.1-0.3,0.4-0.6,0.5c-0.3,0.1-0.7,0.2-1,0.4c-1.1,0.6-1.4,2.3-2.7,2.8 c-1.5,0.5-2.6,2.1-2.4,3.6c-0.8-0.2-1.4,0.5-1.5,0.8c-0.4,0.9-0.8,1.8-1.1,2.6c-0.2,0.6-0.2,1.7-0.1,2.6c0.2,0.7-0.8,1.8-0.4,2.6 c0.1,0.6,0.1,1.3,0.6,1.6c-0.1-1.1-0.1-2.5,1.2-3.3c0.2-0.1,0-0.9,0.1-1.2c0.3-0.7,0.1-1.6,0.4-1.8c0.9-0.6,1.1-1.5,1.4-2.3 c0-0.1,0.3,0,0.3-0.1c0.2-0.3,0.4-0.4,0.5-0.7c0.3-0.6,1.3-0.6,1.6,0c1.1,2.4-0.6,5.9,2.2,7c1.1,0.5,2.1,1.3,3.3,1.8 c0.7,0.3,1.6,0.7,1.9,1.6c0.1,0.6,1.3,0.4,1.5,0.9c0.2,0.6,0.6,1.1,0.6,1.8c0.5-0.3,0.9-0.7,0.8-1.2c0.4,0.5,0.1,1.4,0.7,1.8 c-0.1-1.5,1.2-2.7,2.2-3.6c0.3-0.3,0.9-0.2,1.1-0.7c0.2-0.5,0.3-1.1,0.5-1.3c0.6-0.7,1.2-1.1,1.9-1.7c0.6-0.4,0.7-1.3,1.2-1.8 c-0.6,0.2-1.9,0.3-1.4-0.5c0.8-1.2,2-1.2,2.9-2.3c0.1-0.1-0.2-1.1-0.2-1.3c-0.9,0.3-1.9,0.7-2.7,0.1c-0.3-0.2,0-0.7,0.2-0.9 c0.7-1.2,1.5-2.1,2.3-2.8c0.4-0.5,1.8-0.4,2.6-0.9c0.8-0.5,0.4-1.5,0.9-2.3C152.6,302.4,152.5,301.9,152.9,301.9"></path> <path class="st1" d="M131,314.7c-0.5,0.1-0.8,0.5-1.1,0.7c-0.4,0.2-0.9,0-1.2-0.3c-0.1,0.6,0.2,1.1,0.1,1.7 c-0.1,0.6-1.1,0.8-0.8,1.1c0.5,0.6,0.6,1.4,1.2,1.6c0.4,0.2,0.2-0.2,0.2-0.3h-0.2c0.2-0.6,0.4-0.8,0.9-1.1c0.3-0.3-0.4-1.1-0.1-1.5 c0.5-0.7,1.6-0.7,2.1-1.6c-0.6,0.1-0.2-1-0.9-0.7C131.1,314.4,131.1,314.6,131,314.7"></path> <path class="st1" d="M128.2,319.6c0,0.4-0.6,0.8-0.3,1c0.6,0.7,1,1.8,2,2c-0.1-0.8-0.4-1.6-0.2-2.5 C129.1,320.2,128.6,319.9,128.2,319.6"></path> <path class="st1" d="M150.3,311.5c1.1,0.4,0.6,1.5,1,1.6c1.1,0.4,1.3,0.4,1.4,1.5c0,0.2-0.3,0.2-0.3,0.4c0,1.3-0.8,2.6-1.9,3.3 c-0.1,0.1-0.1,0.6-0.3,0.8c-0.7,0.6-1.6,0.7-2.6,0.7c0.1,0.2-0.4,0.4-0.3,0.7c-0.9,0-2.3,0.3-2.6-0.1c-0.7-1.2,1.7-2.2,2.4-3.3 c0.8-1.1,1.3-2.4,1.7-3.8c0.1-0.4,0.7-1.1,1.3-1.3c0.7-0.1,1.3,0.2,1.5,0.9h-0.2L150.3,311.5z"></path> <path class="st1" d="M150.9,320.3c-0.4-0.2-0.8-0.4-1.1-0.2c-0.5,0.4-0.2,1.1-0.2,1.6c0.7,0.1,1.4-0.2,1.8-0.6 c0.2-0.3,0-0.8-0.2-1.1c-0.2-0.3-0.6,0.2-0.9,0.2c-0.1,0.1-0.2-0.1-0.2-0.3L150.9,320.3z"></path> <path class="st1" d="M154.6,315.7c-0.3,0-0.6-0.1-0.7,0c-0.6,0.4-0.2,0.6-0.1,1.3c0,0.1-0.2,0.2-0.4,0.2c0.1,0.1,0.1,0.3,0.2,0.3 c0.9,0.2,0.6-0.4,0.6-1.1c0.2,0,0.4,0.1,0.5,0c0.1-0.1,0.1-0.4,0-0.5c0-0.1-0.2,0-0.3-0.1C154.3,315.7,154.4,315.6,154.6,315.7"></path> <path class="st1" d="M122,317.3c0.8,0.1,1.8-0.1,2.4,0.4c1.1,0.8,1.8,2,2,3.1c0.6,2.2,1.4,4.3,1.5,6.5c0,0.4-0.6,0.9-0.6,1.3 c-0.1,1.4,1.3,2.1,2.5,2.6c-0.1,0.3,0.2,0.7-0.2,0.9c0.1,0.1,0.3,0.3,0.3,0.4c-0.1,0.6-0.3,1.1-0.6,1.7c-0.3,0.6,0.3,1.1,0.4,1.7 c0.2,0.6,0,1.4,0.4,2c1.1,1.5,2.5,2.7,4.6,3.1c0.1,0,0.4,0.6,0.2,0.8c-1.2,1.3-3.3,0.2-4.4,1.1c-0.9,0.9-2.1,1.3-3.3,1.4 c-1.1,0.2-1.6-1.4-2.6-1.4c-1.2-0.1-2.1-0.9-3.3-1.1h0.1c-0.4,0.3-0.9,0.3-1.3,0.2c-0.3-0.2-0.6-0.3-0.9-0.4 c-0.9-0.6-1.4-1.6-2.2-2.1c-0.9-0.4-1.9-0.2-2.9-0.8c-0.6-0.5-0.9-1.1-1.4-1.6c-0.5-0.7-0.5-1.8-1.3-2.3c-0.6-0.4-1.4-0.4-2.1-0.7 c-0.1-0.1-0.2-0.2-0.2-0.5c-0.6,0.1-1.3-0.4-1.9-0.4h0.2c-0.6,0-1.2-0.1-1.6,0.4c-0.2-0.2-0.4-0.3-0.6-0.4c0.5,0.6-0.3,1.4,0,2.1 c-0.3-0.6,0.4-1.4-0.1-1.8c-1-0.7-1.3-2.3-0.8-3.3c0.1-0.3-0.9-0.7-0.7-1.3c0.3-0.7,0.6-1.3,0.6-2.1c0-0.1,0.2-0.3,0.3-0.3 c1.3-0.4,2.3,1.1,3.3,0.5c0.4-0.2,0.3-1.5,1-1.6c1.3-0.1,2.3,0.3,3.4,1.1c0.1,0.1,0.7,0.7,0.8,0.1c0.1-0.6,0.7-0.6,1.2-0.8h-0.2 c0.7-0.7,1.8-0.2,2.6-0.4c-0.6-1.4,0.2-2.9-0.1-4.4c-0.1-0.3,0.4-0.3,0.6-0.6c0.5-0.8,0.7-1.6,0.9-2.6c0.1-0.6,0.9-0.8,1.3-1 c1-0.6,2.3-0.6,3.3,0.3c0.1,0.1,0,0.2,0,0.4L122,317.3z"></path> <path class="st1" d="M150.9,324.9c-0.4-0.2-0.6,0.3-0.9,0.3c0.1,0.6,0.6,1.5,1.5,1.6v-2c-0.3,0.1-0.8-0.3-1.1,0.1H150.9z"></path> <path class="st1" d="M174.3,323.8c0,1.8,0.3,3.4-0.3,5.1c-0.2,0.5-0.6,1.2-1,1.3c-1.6,0.4-3.2,0.5-4.8,0.8c-1,0.3-2.2-0.6-3.4-0.2 c-0.6,0.2-1.6-0.1-2,0.3c-0.5,0.6-0.9,1-1.6,0.6c-0.1-0.1-0.1-0.7,0-0.8c0.7-0.6,0.6-1.5,1.3-2.1c0.8-0.8,1.8-1.4,1.8-2.2 c0-0.6-1.5-0.8-1.9-0.6c-1.2,0.7-2.8,2.3-2.2,3.9c0.2,0.6,0.7,1.3,0.3,1.8c-0.1,0.2-0.9-0.1-1.1-0.3c-0.4-0.8-1.3-1-1.5-1.9 c0.2,0.8,0.9,2.6,0.1,3.2c-1.1,0.9-1.6,0.1-1.6-0.4c0.2,0,0.2-1,0.4-1c0-0.3,0.1-0.7-0.3-0.9c-0.7-0.4-1.5,0-2.1,0.4 c-0.3,0.2-1.1-0.3-1.6,0c-0.9,0.4-0.1,2-1,2.3c-1.7,0.6-1.9-1.8-1.6-3.1c0.1-0.5,1-0.6,1.3-1c0.7-0.7,0-1.7,0.1-2.5 c0.1-0.3,0.6-0.1,0.7-0.4c0.1-0.6-0.1-1.2-0.1-1.5c-0.1-1.3,1.4-2.2,2.2-3c0.5-0.5,1-1.7,1.4-2.5c0.1-0.2-0.2-0.9,0-1.2 c0.5-0.6,1.4-0.1,2.1-0.3c0.8-0.3,1.1-1.1,1.2-1.8c0.2-1.1,0.2-2.3-0.5-3.1c-0.5-0.6-1.4-1.2-1.6-1.8c-0.3-1.1,0.8-2.1,1.2-3.3 c0.1-0.4-0.3-0.8-0.3-1.1c-1.1,0.3-1.4-0.8-2.1-1.1c-1.1-0.4-2.2-0.8-3.2-1.4c-1.1-0.9,0-2.4-0.1-3.6c0.5,0.1,0.5-0.1,0.5-0.3 c1.1-0.1,2.2,0.3,2.9-0.6c0.1-0.1,0-0.4,0.1-0.5c0.5-0.6,1.4-0.9,1.7-0.5c0.2,0.3-0.5,1.8-0.6,2.1c0,0.1,0.1,0.2,0.3,0.2 c0.4-0.1,0.6,0.4,0.6,0.6c0.7-0.1,0.8,0.4,1.2,0.8c1.2,1,0.9-1.7,1.3-2.6c0.1-0.1,0.4-0.1,0.7-0.1c-0.1,0-0.3,0.1-0.3,0 c-0.3-0.8,0.6-1.1,0.8-1.6c0.2-0.4-0.3-0.9-0.1-1.3c0.1-0.1,0.2-0.3,0.4-0.2c1.4,1,2.7-0.8,3.9-1.2c1.5-0.5,2.7,0.8,3.3,2.1 c-0.2,0-0.1,0.6-0.5,0.4h0.1c0.1,0.8-0.7,0.9-1.2,1.3c-0.1,0.1-0.1,0.4,0,0.4c0.1,0.2,0.5,0.1,0.6,0.1c0.9-0.3,1.3-1.6,2.2-1.2 c0.8,0.4,1.6,0.6,2.4,0.4c0.2,0,0.4-0.3,0.4-0.5c0.4,0.6,0.8,0.9,1,1.8c0.1,0.6,1.2,0.8,1.3,1.3c0.1,1.3,1.2,1.6,1.6,2.5 c0.6,1.5,2.1,2.5,3.1,4c0.2,0.3,0.2,0.9,0,1c-0.3,0.3-1,0.7-1,1.1c-0.1,0.9-1.1,1.6-0.7,2.5c0.4,0.9-0.1,1.8,0.2,2.6 c0.4,1.7,2.8,1.9,4.4,1.3c0.4,2.6-2.8,3.7-4.9,3.4c0.1,0.4-0.6,0.4-0.6,0.6c-0.7,0.9-1.7,0.5-2.7,0.9c-0.1,0,0,0.2,0,0.3 c-0.4-0.1-0.5,0.3-0.7,0.4c-0.4,0.4,0,1.2-0.3,1.8V323.8z"></path> <path class="st1" d="M157,313.7c-0.3,0.1-0.4,0.4-0.1,0.6c0.1,0.3,0.4,0.2,0.6,0C157.8,313.9,157.3,313.7,157,313.7"></path> <path class="st1" d="M158.4,314.9c0-0.1-0.3-0.1-0.4-0.1c0,0.1,0.3,0.3,0.2,0.4c-0.3,0.1-0.9,0.1-0.7,0.4c0.3,0.5,1-0.1,1.5,0.1 c0-0.2,0.2-0.4,0-0.5C158.8,315.3,158.4,315.4,158.4,314.9"></path> <path class="st1" d="M177.5,328.8c-0.4-0.4-1.3-0.6-1.3,0.3c0,0.1,0.1,0.1,0.2,0.1c-0.1,0.3-0.2,0.7,0.1,0.9 c0.1,0.1,0.3,0.1,0.3-0.1c0.1-0.2,0-0.3,0.1-0.5c0.2-0.3,0.7-0.4,0.9-0.6C178,328.9,177.6,328.9,177.5,328.8"></path> <path class="st1" d="M160.4,333.5c0.6,0.1,1.1-0.1,1.6-0.4c1.5-1.1,3.7-2.1,5.3-0.9c1.3-0.9,3.2,0.5,4.6,0.1 c1.1-0.3,2.5-1.3,2.8-2.8c0.6,1.2,2.1,3,1.8,5c-0.4,2-0.8,2.4-1.8,4c-0.7,1,0.3,2.4,1.8,2.7c0.6,0.1,1.1,1.3,0.9,2.2 c0,0.3-0.6,0.2-0.6,0.6c-0.1,0.7,0.3,1.4,0.2,2c-0.2,0.8,0.1,1.4-0.2,2.1c-0.2,0.6-0.2,1.4-0.6,2c-1.1,1.3-2.4,2-4.1,2.4 c-1.8,0.3-1,1.8-2.6,2.3c-0.7,0.3-2.6,1-3.2,0.7c-1.2-0.5-3.5-1.2-4.5-1.9c-0.4-0.3-0.5-0.7-0.4-1.1c-0.2,0.1-0.2-0.6-0.6-0.3 c-0.3-0.8-0.6-1.6-0.4-2.6c0.2-0.5,0.6-0.9,0.3-1.2c-0.5-0.6-1.3-1-1.5-1.5c-0.4-1-0.2-2.6-1.1-2.7c-1.6-0.1-3.3,0.3-4.9,0.6 c-1.8,0.4-3.9,0.1-5-1.1c-0.6-0.6-0.1-2.3-0.9-3c-0.6-0.5-0.6-1.3-0.6-1.6c-0.3-1.6-0.3-4.5,2.1-4.6c0.1,0,0.3-0.4,0.6-0.4 c1.8-0.1,3.6-2,4.8-0.4c2.2-0.1,5.8,1.5,6.7-0.9h-0.2L160.4,333.5z"></path> <path class="st1" d="M181.2,337c0.8-0.1,1.8,0.1,1.9,0.8c0.3,1.3,0.4,2.8,0.1,4c-0.1,0.5-0.1,1.1-0.4,1.5c-0.9,1.1-2.2,0.3-2.6-0.9 c-0.4-1.1-0.4-2.4-0.1-3.5c0.1-0.3,1-0.1,1.1-0.6c0.1-0.4-0.3-0.8-0.2-1.1c0-0.3,0.4-0.4,0.8-0.4L181.2,337z"></path> <path class="st1" d="M106.2,336.7c-0.8,1,0.9,1.1,0.8,1.9C107.1,337.8,106.2,337.4,106.2,336.7"></path> <path class="st1" d="M186.6,312.2c0,18.8-15.2,34-33.9,34v-1.6c17.9,0,32.4-14.6,32.4-32.4c0-17.9-14.4-32.4-32.4-32.4v-1.6 C171.4,278.3,186.6,293.5,186.6,312.2 M152.6,346.2L152.6,346.2c-18.8,0-34-15.3-34-34c0-18.8,15.2-33.9,34-33.9v1.6 c-17.9,0-32.4,14.5-32.4,32.4c0,17.9,14.5,32.4,32.4,32.4V346.2z"></path> <path class="st1" d="M166.5,312.2c0,7.7-6.2,13.9-13.9,13.9v-1.3c7,0,12.6-5.6,12.6-12.5c0-6.9-5.6-12.5-12.6-12.5v-1.3 C160.2,298.4,166.5,304.6,166.5,312.2 M152.6,326.1L152.6,326.1c-7.7,0-13.9-6.2-13.9-13.9s6.2-13.8,13.9-13.8v1.3 c-6.9,0-12.5,5.6-12.5,12.5c0,6.9,5.6,12.5,12.5,12.5V326.1z"></path> <path class="st1" d="M85,389.1c0.4,0.4,0.9,0.6,1.4,0.9c0.6,0.3,0.3,1.1,0.1,1.3c-0.1,0.3-0.7,0.3-1.4,0.1H85V389.1z M85,379.5 c1.6,1.5,3.5,3.1,4.2,4c1.4,1.7,1.5,1.8,1.5,1.8l-3.1,3.4l-2.6-2.3v-2.1l2.1,2l1.4-1.5l-3.5-3.2V379.5z M82.7,386.9 c1.1,1,1.9,1.8,2,2c0.1,0.1,0.1,0.1,0.2,0.2v2.3c-0.6-0.3-0.5-0.8-0.9-1.2c-0.1-0.2-1-0.9-2.1-2V385c0.2-0.3,0.4-0.6,0.5-0.8 l-0.5-0.4v-2.3l3,2.8v2.1l-1.1-0.9C83.4,386,83,386.5,82.7,386.9 M82,393.8c0.6,0.2,1.3-0.4,1.3-0.4l0.7,1.5c0,0-0.3,1.2-2,1.3 V393.8z M82,377.2v3.3l0.9-0.8l2.1,1.9v-2.1c-1.6-1.4-2.9-2.5-2.9-2.5L82,377.2z M82,388.3L82,388.3c-0.9,1.9-0.5,3.1-0.5,4.5 c0,0.8,0.2,1,0.5,1.1v2.3h-0.3c-0.4,0-0.7-0.2-1-0.5V385c0.3,0.3,0.5,0.5,0.8,0.7c0.1-0.3,0.3-0.5,0.5-0.8V388.3z M80.7,378.5 l1.3-1.3v3.3l-0.5,0.5l0.5,0.5v2.3l-1.3-1.1V378.5z M80.7,395.7c-1.1-1.3-1.2-4.4-1.1-5.8c0.1-1.2,0.6-2.1,0.9-2.8l-2.8-2.5 l-2.3,2.6l2.6,0.8l-0.7,1.6l-5.6-1.2l0.6-1.9l1.1-0.3l7.2-7.7v4.1l-0.6-0.5l-1.2,1.3c0.3,0.3,1,0.9,1.8,1.6V395.7z"></path> <rect x="373.2" y="275.6" class="st1" width="7" height="92.8"></rect> <path class="st1" d="M430.5,369.2c-9.2,0-17.1-3.4-22.5-8.9c-8.6-8.6-9.3-15.8-9.3-38.3s0.7-29.7,9.3-38.3 c5.5-5.5,13.3-8.9,22.5-8.9c16.7,0,28.4,10.4,31.6,27.1h-7.2C452.2,289,443,281,430.5,281c-6.8,0-12.8,2.3-17.6,7.2 c-6.7,6.6-7.2,14.2-7.2,33.8c0,19.6,0.5,27.1,7.2,33.8c4.8,4.8,10.8,7.2,17.6,7.2c12.5,0,21.9-8,24.6-20.9h6.9 C459,358.8,447,369.2,430.5,369.2"></path> <path class="st1" d="M539.7,368.4l-8.1-22.6h-43.3l-8.1,22.6h-7.6l34.2-92.8h6.3l34.2,92.8H539.7z M490.5,339.6h38.8l-19.4-54.6 L490.5,339.6z"></path> <path class="st1" d="M611.2,360.3c-5.5,5.5-13.3,8.9-22.6,8.9c-9.3,0-17.1-3.4-22.6-8.9c-8.6-8.6-9.2-15.8-9.2-38.3 c0-22.6,0.6-29.7,9.2-38.3c5.5-5.5,13.3-8.9,22.6-8.9c9.2,0,17.1,3.4,22.6,8.9c8.6,8.6,9.3,15.8,9.3,38.3 C620.5,344.5,619.8,351.7,611.2,360.3 M606.3,288.2c-4.8-4.8-10.8-7.2-17.6-7.2c-6.8,0-12.8,2.3-17.6,7.2 c-6.7,6.6-7.2,14.2-7.2,33.8s0.5,27.1,7.2,33.8c4.8,4.8,10.8,7.2,17.6,7.2c6.8,0,12.8-2.3,17.6-7.2c6.6-6.7,7.2-14.2,7.2-33.8 S612.9,294.9,606.3,288.2"></path> <rect x="327.6" y="253.1" class="st2" width="2.7" height="138"></rect> </svg>