<svg xmlns="http://www.w3.org/2000/svg" xmlns:xlink="http://www.w3.org/1999/xlink" id="layer" x="0px" y="0px" viewBox="0 0 652 652" style="enable-background:new 0 0 652 652;" xml:space="preserve"> <style type="text/css"> .st0{fill:#2B455D;} </style> <path class="st0" d="M618.3,282.6v-11.9l-4.3,11.9h-1.5l-4.4-11.8v11.8h-1.8v-13.3h3l4,10.9l3.8-10.9h2.9v13.3H618.3z M598.6,282.6 h-1.8v-11.7h-4.4v-1.6H603v1.6h-4.4V282.6z M159,376.1l-2.2,0v3.3h2.2c1.3,0,2.1,0,2.5-0.1c1.1-0.2,1.6-0.7,1.6-1.5 c0-0.7-0.5-1.2-1.4-1.4C161.1,376.2,160.2,376.1,159,376.1 M156.8,387.1h-6v-13.5h10c1.7,0,2.9,0,3.4,0.1c3.1,0.3,4.7,1.4,4.7,3.5 c0,1.8-1.8,2.9-5.3,3.2c1.9,0.1,3.2,0.4,3.8,1c0.4,0.4,0.8,1.2,1.1,2.4l0.4,1.7c0.2,0.7,0.4,1.2,0.6,1.6h-6.5 c-0.2-0.5-0.5-1.5-0.7-3c-0.1-0.9-0.4-1.5-0.6-1.7c-0.4-0.3-1.2-0.5-2.4-0.5h-2.5V387.1z M573.3,373.7h6.9l4.7,5.7l4.9-5.7h6.1 l-8.4,8.7v4.8h-6.1v-4.9L573.3,373.7z M549.5,387.1v-13.5h8.2l7.3,10.1l0-10.1h5.2v13.5h-8.1l-7.4-10.5l0.1,10.5H549.5z M533.7,376.3l-3,5.7h5.8L533.7,376.3L533.7,376.3z M527.8,387.1h-6l8.5-13.5h7.3l8.5,13.5h-6.7l-1.5-2.7h-8.6L527.8,387.1z M512.9,376.2l-2.6,0v3.5h2.6c1.1,0,2-0.1,2.5-0.2c0.9-0.3,1.4-0.8,1.4-1.6c0-0.7-0.4-1.2-1.3-1.5 C515,376.3,514.1,376.2,512.9,376.2 M510.3,387.1h-6v-13.5h9.9c2.5,0,4.4,0.2,5.6,0.7c2,0.8,3,2,3,3.7c0,1-0.4,1.9-1.3,2.6 c-0.5,0.5-1.2,0.8-1.9,1.1c-1.1,0.4-2.9,0.6-5.4,0.6h-3.9V387.1z M473.2,387.1v-13.5h9.4l3.6,9.1l3.4-9.1l9.4,0v13.5h-5.7l0.3-11.3 l-5.1,11.3h-5.4l-4.9-11.4l0.2,11.4H473.2z M459.2,375.9c-3.3,0-5,1.5-5,4.5c0,2.9,1.7,4.3,5,4.3c3.3,0,5-1.5,5-4.3 c0-1.5-0.5-2.6-1.4-3.4C462,376.3,460.8,375.9,459.2,375.9 M451.9,386.1c-2.6-1.2-3.9-3.1-3.9-5.6c0-0.8,0.2-1.6,0.5-2.4 c1.3-3.2,4.9-4.8,10.9-4.8c3.9,0,6.8,0.8,8.7,2.3c1.5,1.3,2.2,2.9,2.2,4.8c0,2.5-1.2,4.3-3.7,5.5c-2,1-4.5,1.5-7.5,1.5 C456.2,387.5,453.8,387,451.9,386.1 M446.2,377.9H440c-0.3-1.2-1.4-1.9-3.5-1.9c-3.2,0-4.7,1.5-4.7,4.5c0,2.8,1.6,4.2,4.7,4.2 c2.1,0,3.3-0.6,3.6-2h6.2c0,1.8-1.3,3.1-3.8,3.9c-1.6,0.5-3.6,0.7-5.9,0.7c-3,0-5.4-0.4-7.2-1.3c-2.5-1.1-3.8-3-3.8-5.7 c0-2.6,1.3-4.5,3.7-5.7c1.9-0.9,4.3-1.4,7.2-1.4c2.3,0,4.2,0.3,5.8,0.7C444.8,374.9,446,376.1,446.2,377.9 M389.3,382.8h6 c0.1,1.4,1.3,2.1,3.6,2.1c2.1,0,3.2-0.5,3.2-1.5c0-0.7-0.6-1.1-1.8-1.3l-5.3-0.9c-3.6-0.6-5.4-1.8-5.4-3.7c0-1.6,1.2-2.8,3.6-3.5 c1.6-0.5,3.4-0.7,5.5-0.7c3.7,0,6.2,0.5,7.5,1.6c0.8,0.6,1.2,1.5,1.3,2.7l-6.1,0c0-1.2-0.9-1.8-2.8-1.8c-0.6,0-1.2,0.1-1.7,0.3 c-0.7,0.3-1.1,0.6-1.1,1.1c0,0.7,0.7,1.1,2.2,1.4l4,0.6c2,0.3,3.4,0.7,4.2,1c1.4,0.6,2.1,1.6,2.1,2.8c0,1.7-1.3,2.9-3.7,3.7 c-1.6,0.5-3.5,0.7-5.8,0.7C392.6,387.4,389.5,385.9,389.3,382.8 M386.2,377.9H380c-0.2-1.2-1.4-1.9-3.5-1.9c-3.1,0-4.7,1.5-4.7,4.5 c0,2.8,1.6,4.2,4.7,4.2c2.1,0,3.3-0.6,3.6-2h6.2c0,1.8-1.3,3.1-3.8,3.9c-1.6,0.5-3.6,0.7-5.9,0.7c-3,0-5.4-0.4-7.2-1.3 c-2.5-1.1-3.8-3-3.8-5.7c0-2.6,1.2-4.5,3.7-5.7c1.9-0.9,4.3-1.4,7.2-1.4c2.3,0,4.2,0.3,5.8,0.7C384.8,374.9,386.1,376.1,386.2,377.9 M355.3,373.7h6.2v13.5h-6.2V373.7z M323.9,387.1v-13.5h9.4l3.6,9.1l3.4-9.1l9.4,0v13.5H344l0.3-11.3l-5.1,11.3h-5.4l-4.9-11.4 l0.2,11.4H323.9z M308,376.3l-3,5.7h5.8L308,376.3L308,376.3z M302.2,387.1h-6l8.5-13.5h7.3l8.5,13.5h-6.7l-1.5-2.7h-8.6 L302.2,387.1z M273.1,387.1v-13.5h8.2l7.3,10.1l0-10.1h5.2v13.5h-8.1l-7.4-10.5l0.1,10.5H273.1z M248.6,373.7h6.9l4.7,5.7l4.9-5.7 h6.1l-8.4,8.7v4.8h-6.1v-4.9L248.6,373.7z M236.4,376.2H234v8.3h2.6c4.3,0,6.5-1.4,6.5-4.2c0-1.8-0.9-2.9-2.7-3.6 C239.5,376.4,238.2,376.3,236.4,376.2 M237.1,387.1h-9.2v-13.5h9.1c3.7,0,6.5,0.4,8.2,1.1c2.7,1.2,4.1,3,4.1,5.6 c0,3.2-2,5.3-5.9,6.3C242,387,239.9,387.1,237.1,387.1 M199.4,387.1v-13.5h6.1v10.8h9.6v2.7H199.4z M183.7,376.3l-3,5.6h5.9 L183.7,376.3L183.7,376.3z M177.9,387.1h-6l8.5-13.5h7.3l8.5,13.5h-6.7l-1.5-2.7h-8.6L177.9,387.1z M130.1,387.1v-13.5h16.2v2.6H136 v2.8h9.7v2.6H136v2.9h10.5v2.6H130.1z M104.9,387.1v-13.5h8.2l7.3,10.1l0-10.1h5.2v13.5h-8.1l-7.4-10.5l0.1,10.5H104.9z M83.8,387.1 v-13.5h16.2v2.6H89.7v2.8h9.7v2.6h-9.7v2.9h10.5v2.6H83.8z M77.6,377.7l-6.1,0c-0.3-1.2-1.5-1.8-3.7-1.8c-1.6,0-2.9,0.3-3.9,1 c-1.1,0.8-1.7,1.9-1.7,3.5c0,1.6,0.7,2.8,2.1,3.5c1.1,0.6,2.5,0.9,4.3,0.9c1,0,2.1-0.1,3.3-0.2V382h-4.6v-2.6h10.2v7.2 c-3.3,0.5-6.5,0.7-9.5,0.7c-5.6,0-9.3-1.3-11.1-3.9c-0.6-0.9-1-2-1-3.1c0-1.1,0.3-2.1,0.9-3.1c0.6-0.9,1.4-1.7,2.3-2.3 c2-1.2,5-1.8,8.9-1.8c3.7,0,6.3,0.5,7.9,1.6c0.7,0.4,1.1,1,1.4,1.5C77.5,376.7,77.5,377.2,77.6,377.7 M31.9,376.3l-3,5.7h5.8 L31.9,376.3L31.9,376.3z M26,387.1h-6l8.5-13.5h7.3l8.5,13.5h-6.7l-1.5-2.7h-8.6L26,387.1z M21.7,357.3H596v3.7H21.7V357.3z M66.4,302h10.5v14c0,8.1-1.5,12.8-5.4,16.8c-3.5,3.5-8.9,5.4-14.7,5.4c-15.1,0-22-12.5-22-39c0-25.7,7.4-38.3,22.8-38.3 c9,0,14.5,3.4,19.5,12.3c2.7,4.8,3.8,7.2,5.6,12.7h4.6v-27.3h-3.2l-4.7,7.9c0,0-0.2-0.6-4.9-4.1c-4.7-3.5-11-5.4-16.7-5.4 c-21.3,0-37.5,20.8-37.5,42.7c0,21.6,16.1,42.1,36.6,42.1c8.5,0,14-2.6,21.6-10.4c1.6-1.6,2.6-3.1,2.6-3.1l5.8,11.9h3.4V302H97v-3.3 H66.4V302z M359.9,281.2c-7.2,0-12.2,3.4-15.6,10.5v-9.1H322v3.3h9.9V337h-8.6v3.3h29.6V337h-8.7v-22.7c0-9.6,0.7-14.4,3-19.9 c2.2-5.5,6.6-9.1,10.9-9.1c2,0,2.9,0.8,2.9,0.8l-0.5,0.4c-2.3,1.9-3,3.3-3,5.8c0,4.1,3.2,7.3,7.3,7.3c4.1,0,7.3-3.5,7.3-8 C372.1,285.5,367.1,281.2,359.9,281.2 M309.5,337c-5.3,0-6.9-1.8-6.9-13.3v-37.8h16.9v-3.3h-16.9v-19.9h-3.2l0,0.5 c-1,11.6-9.4,19-16.9,19.4l-0.5,0v3.2h8.5V327c0.1,2.9,0.7,5.3,1.6,7.3c2,4.5,7.7,7.5,14.3,7.5c6.7,0,11.9-2.8,14.5-8 c1.9-3.9,2.6-7.9,2.6-15.2h-3.5C319.2,332.3,316.6,337,309.5,337 M229.3,263.8c-1.1,1.9-1.5,2.8-1.5,4.5c0,4,2.5,6.6,6.4,6.6 c3.8,0,6.5-2.8,6.5-6.8c0-6.3-6.3-11-14.7-11c-5.7,0-10.5,2-14.5,5.8c-5.1,4.8-7.3,10.1-8,19.7h-8.3v3.3h8.3V337h-8.4v3.3h30.6V337 h-9.9v-51.1h13.2v-3.3h-13.3v-3.2c0-14.7,2.2-19,9.6-19c2.7,0,5.2,2.3,5.2,2.3L229.3,263.8z M184.1,258.7h-20.5v3.3h8.3v75h-8.3v3.3 h28.9V337h-8.3V258.7z M155.5,282.6h-22.2v3.3h9.9v20.3c0,7.1-0.6,11.6-2.3,16c-3,8.8-9.9,15.1-16.5,15.1c-5.5,0-8-4.6-8-14.9v-39.9 H94.3v3.3h10v33.8c0,8.5,1,12.7,3.8,16.4c2.6,3.6,7.5,5.8,13,5.8c6.3,0,12.2-2.6,16.3-7.1c2.5-2.7,3.8-4.5,5.7-8.8v14.2H161V337 h-5.5V282.6z M272.7,309.2c-3-1.9-4.8-2.6-12.7-5.2c-14.3-4.7-16.3-6.6-16.3-11c0-4.7,4.8-8.3,11-8.3c9.3,0,16,7.2,17.9,19.2 l0.1,0.4h2.8v-21.6h-3.1l-1.7,4.1c0,0-0.9-0.6-2.7-1.8c-4.4-2.5-8.6-3.7-13.3-3.7c-11.7,0-20.8,7.6-20.8,17.3c0,5,2.5,9.2,7.3,12 c3,1.7,5,2.6,12.6,5c13.9,4.7,16,6.2,16,12.1c0,6-5.8,10.9-12.9,10.9c-10.2,0-17.5-7.9-21.7-23.5l-0.1-0.4h-2.8v25.6h2.9l1.8-5.2 c0,0,3.5,2.2,6.2,3.5c3.6,1.6,8.3,3.3,13.7,3.3c12.7,0,22.7-8.6,22.7-19.5C279.5,316.9,276.9,311.8,272.7,309.2 M399.9,284.7 c8.1,0,12,5.2,12,15.8c0,3.6,0,6.2,0,6.2h-26.6C386.2,290.8,390.3,284.7,399.9,284.7 M421.4,320.4c-1.9,11.9-8.8,18.2-20,18.2 c-11.3,0-16.5-7.3-16.5-23.1l0-1.1c0-1.3,0-2.5,0.1-4.5h39.5l0-3c0-15.2-10-25.8-24.3-25.8c-15.2,0-28.5,14.2-28.5,30.5 c0,16.9,12.9,30.1,29.4,30.1c13.1,0,21.9-8,23.7-21.3l0.1-0.6h-3.4L421.4,320.4z M586.8,301.7c0-8.7-0.5-11-3.2-14.6 c-3-3.8-8.3-5.9-14.8-5.9c-10.3,0-17.7,5.5-21.4,16c-0.7-4.5-1.1-5.9-2.5-8.6c-2.5-4.6-8.1-7.4-14.5-7.4c-9.4,0-17.1,5.7-21.3,15.6 v-14.2h-22.2v3.3h10V337h-8.2v3.3h29.6V337H509v-15.3c0-11.7,0.7-16.7,3.1-23c2.9-7.6,8.9-12.4,15.7-12.4c5.7,0,8,3,8,10.5V337H527 v3.3h29.6V337H548v-16.1c0-10.8,0.5-15.5,2.1-21.3c2.5-8.3,8.6-13.3,16.6-13.3c6.9,0,7.9,2,7.9,15.1V337h-8.3v3.3h29.6V337h-9.2 V301.7z M463.9,312.3c0,10.4-0.6,13.2-3.6,18c-2.7,4.1-7.3,7-11.1,7c-4.1,0-6.6-3.9-6.6-10.4c0-4.7,1.4-8.6,4.2-11.2 c3.4-3.2,7.7-4.8,17.2-6.2V312.3z M484.2,324.3c-0.1,8.9-1.8,12.8-5.6,12.8c-1.6,0-2.4-0.9-2.4-5.5v-29.4c0-8.3-1.9-13.1-6.3-16.3 c-4-2.9-10.3-4.7-16.5-4.7c-12.3,0-22,6.6-22,15c0,4.3,3.1,7.5,7.2,7.5c3.8,0,6.9-3,6.9-6.7c0-2.2-1-3.9-2.8-4.9 c-1.8-1-2.5-1.2-2.5-1.2s1.4-2.6,3.4-3.9c2.6-1.6,5.6-2.5,9.1-2.5c8.7,0,11.3,3.3,11.3,14.1l0,7.6l-11,2.2 c-15.7,3.1-24.1,9.7-24.1,19.1c0,8.6,6.3,14.2,16,14.2c8.6,0,15.2-4.1,19.2-11.8c0.7,8.6,3.9,11.8,11.2,11.8 c8.4,0,12.4-5.2,12.4-16.5v-1.6h-3.4L484.2,324.3z"></path> </svg>